<mxfile host="Electron" modified="2025-02-09T18:12:12.932Z" agent="Mozilla/5.0 (Windows NT 10.0; Win64; x64) AppleWebKit/537.36 (KHTML, like Gecko) draw.io/24.5.1 Chrome/124.0.6367.207 Electron/30.0.6 Safari/537.36" etag="xRde6WF8NnM9FIg6leIW" version="24.5.1" type="device" pages="3">
  <diagram name="General" id="NLnqTH2inJmVAPDIlqQQ">
    <mxGraphModel dx="1478" dy="1330" grid="1" gridSize="10" guides="1" tooltips="1" connect="1" arrows="1" fold="1" page="1" pageScale="1" pageWidth="1100" pageHeight="850" math="0" shadow="0">
      <root>
        <mxCell id="0" />
        <mxCell id="1" parent="0" />
        <mxCell id="LGsH69sxPBWhbiWK35hH-40" style="edgeStyle=elbowEdgeStyle;rounded=0;orthogonalLoop=1;jettySize=auto;html=1;startArrow=none;endArrow=none;exitX=0.5;exitY=1;exitDx=0;exitDy=0;entryX=0.5;entryY=0;entryDx=0;entryDy=0;fontStyle=1;fontSize=14;" parent="1" source="LGsH69sxPBWhbiWK35hH-27" target="LGsH69sxPBWhbiWK35hH-32" edge="1">
          <mxGeometry relative="1" as="geometry" />
        </mxCell>
        <mxCell id="LGsH69sxPBWhbiWK35hH-27" value="App" style="whiteSpace=wrap;html=1;treeFolding=1;treeMoving=1;newEdgeStyle={&quot;edgeStyle&quot;:&quot;elbowEdgeStyle&quot;,&quot;startArrow&quot;:&quot;none&quot;,&quot;endArrow&quot;:&quot;none&quot;};fontStyle=1;fontSize=14;" parent="1" vertex="1">
          <mxGeometry x="490" y="270" width="120" height="40" as="geometry" />
        </mxCell>
        <mxCell id="LGsH69sxPBWhbiWK35hH-41" style="rounded=0;orthogonalLoop=1;jettySize=auto;html=1;startArrow=none;endArrow=none;exitX=0;exitY=1;exitDx=0;exitDy=0;entryX=0.75;entryY=0;entryDx=0;entryDy=0;fontStyle=1;fontSize=14;" parent="1" source="LGsH69sxPBWhbiWK35hH-32" target="LGsH69sxPBWhbiWK35hH-34" edge="1">
          <mxGeometry relative="1" as="geometry" />
        </mxCell>
        <mxCell id="LGsH69sxPBWhbiWK35hH-42" style="rounded=0;orthogonalLoop=1;jettySize=auto;html=1;startArrow=none;endArrow=none;exitX=0.25;exitY=1;exitDx=0;exitDy=0;entryX=0.5;entryY=0;entryDx=0;entryDy=0;fontStyle=1;fontSize=14;" parent="1" source="LGsH69sxPBWhbiWK35hH-32" target="LGsH69sxPBWhbiWK35hH-33" edge="1">
          <mxGeometry relative="1" as="geometry" />
        </mxCell>
        <mxCell id="LGsH69sxPBWhbiWK35hH-43" style="rounded=0;orthogonalLoop=1;jettySize=auto;html=1;startArrow=none;endArrow=none;exitX=0.5;exitY=1;exitDx=0;exitDy=0;entryX=0.5;entryY=0;entryDx=0;entryDy=0;fontStyle=1;fontSize=14;" parent="1" source="LGsH69sxPBWhbiWK35hH-32" target="LGsH69sxPBWhbiWK35hH-35" edge="1">
          <mxGeometry relative="1" as="geometry" />
        </mxCell>
        <mxCell id="LGsH69sxPBWhbiWK35hH-45" style="rounded=0;orthogonalLoop=1;jettySize=auto;html=1;startArrow=none;endArrow=none;entryX=0.5;entryY=0;entryDx=0;entryDy=0;fontStyle=1;fontSize=14;" parent="1" source="LGsH69sxPBWhbiWK35hH-32" target="LGsH69sxPBWhbiWK35hH-38" edge="1">
          <mxGeometry relative="1" as="geometry" />
        </mxCell>
        <mxCell id="LGsH69sxPBWhbiWK35hH-46" style="rounded=0;orthogonalLoop=1;jettySize=auto;html=1;startArrow=none;endArrow=none;exitX=1;exitY=1;exitDx=0;exitDy=0;entryX=0.75;entryY=0;entryDx=0;entryDy=0;fontStyle=1;fontSize=14;" parent="1" source="LGsH69sxPBWhbiWK35hH-32" target="LGsH69sxPBWhbiWK35hH-37" edge="1">
          <mxGeometry relative="1" as="geometry" />
        </mxCell>
        <mxCell id="LGsH69sxPBWhbiWK35hH-32" value="App_Routes/NavBar" style="whiteSpace=wrap;html=1;treeFolding=1;treeMoving=1;newEdgeStyle={&quot;edgeStyle&quot;:&quot;elbowEdgeStyle&quot;,&quot;startArrow&quot;:&quot;none&quot;,&quot;endArrow&quot;:&quot;none&quot;};fontStyle=1;fontSize=14;" parent="1" vertex="1">
          <mxGeometry x="445" y="360" width="210" height="40" as="geometry" />
        </mxCell>
        <mxCell id="LGsH69sxPBWhbiWK35hH-33" value="MyAccount" style="whiteSpace=wrap;html=1;treeFolding=1;treeMoving=1;newEdgeStyle={&quot;edgeStyle&quot;:&quot;elbowEdgeStyle&quot;,&quot;startArrow&quot;:&quot;none&quot;,&quot;endArrow&quot;:&quot;none&quot;};fontStyle=1;fontSize=14;" parent="1" vertex="1">
          <mxGeometry x="315" y="530" width="120" height="40" as="geometry" />
        </mxCell>
        <mxCell id="LGsH69sxPBWhbiWK35hH-34" value="Home" style="whiteSpace=wrap;html=1;treeFolding=1;treeMoving=1;newEdgeStyle={&quot;edgeStyle&quot;:&quot;elbowEdgeStyle&quot;,&quot;startArrow&quot;:&quot;none&quot;,&quot;endArrow&quot;:&quot;none&quot;};fontStyle=1;fontSize=14;" parent="1" vertex="1">
          <mxGeometry x="185" y="530" width="120" height="40" as="geometry" />
        </mxCell>
        <mxCell id="LGsH69sxPBWhbiWK35hH-35" value="MyOrder" style="whiteSpace=wrap;html=1;treeFolding=1;treeMoving=1;newEdgeStyle={&quot;edgeStyle&quot;:&quot;elbowEdgeStyle&quot;,&quot;startArrow&quot;:&quot;none&quot;,&quot;endArrow&quot;:&quot;none&quot;};fontStyle=1;fontSize=14;" parent="1" vertex="1">
          <mxGeometry x="445" y="530" width="120" height="40" as="geometry" />
        </mxCell>
        <mxCell id="LGsH69sxPBWhbiWK35hH-36" value="My Orders" style="whiteSpace=wrap;html=1;treeFolding=1;treeMoving=1;newEdgeStyle={&quot;edgeStyle&quot;:&quot;elbowEdgeStyle&quot;,&quot;startArrow&quot;:&quot;none&quot;,&quot;endArrow&quot;:&quot;none&quot;};fontStyle=1;fontSize=14;" parent="1" vertex="1">
          <mxGeometry x="575" y="530" width="120" height="40" as="geometry" />
        </mxCell>
        <mxCell id="LGsH69sxPBWhbiWK35hH-37" value="NotFound" style="whiteSpace=wrap;html=1;treeFolding=1;treeMoving=1;newEdgeStyle={&quot;edgeStyle&quot;:&quot;elbowEdgeStyle&quot;,&quot;startArrow&quot;:&quot;none&quot;,&quot;endArrow&quot;:&quot;none&quot;};fontStyle=1;fontSize=14;" parent="1" vertex="1">
          <mxGeometry x="835" y="530" width="120" height="40" as="geometry" />
        </mxCell>
        <mxCell id="LGsH69sxPBWhbiWK35hH-38" value="Sigin/SignUp" style="whiteSpace=wrap;html=1;treeFolding=1;treeMoving=1;newEdgeStyle={&quot;edgeStyle&quot;:&quot;elbowEdgeStyle&quot;,&quot;startArrow&quot;:&quot;none&quot;,&quot;endArrow&quot;:&quot;none&quot;};fontStyle=1;fontSize=14;" parent="1" vertex="1">
          <mxGeometry x="705" y="530" width="120" height="40" as="geometry" />
        </mxCell>
        <mxCell id="LGsH69sxPBWhbiWK35hH-44" style="rounded=0;orthogonalLoop=1;jettySize=auto;html=1;startArrow=none;endArrow=none;exitX=0.589;exitY=1.029;exitDx=0;exitDy=0;entryX=0.666;entryY=0.017;entryDx=0;entryDy=0;entryPerimeter=0;exitPerimeter=0;fontStyle=1;fontSize=14;" parent="1" source="LGsH69sxPBWhbiWK35hH-32" target="LGsH69sxPBWhbiWK35hH-36" edge="1">
          <mxGeometry relative="1" as="geometry" />
        </mxCell>
        <mxCell id="bf0GchZMBBqMS_H1Eqde-2" value="Page General Diagram" style="swimlane;whiteSpace=wrap;html=1;fillColor=#f5f5f5;gradientColor=#b3b3b3;strokeColor=#666666;" vertex="1" parent="1">
          <mxGeometry x="95" y="210" width="910" height="430" as="geometry" />
        </mxCell>
      </root>
    </mxGraphModel>
  </diagram>
  <diagram id="LxhJISJxZTM1yu-z-vKD" name="Visual">
    <mxGraphModel dx="1748" dy="2128" grid="1" gridSize="10" guides="1" tooltips="1" connect="1" arrows="1" fold="1" page="1" pageScale="1" pageWidth="1100" pageHeight="850" math="0" shadow="0">
      <root>
        <mxCell id="0" />
        <mxCell id="1" parent="0" />
        <mxCell id="_ZnvYIC-QsZPnhIG2Bkr-1" value="App Visual Process" style="swimlane;whiteSpace=wrap;html=1;fillColor=#f5f5f5;gradientColor=#b3b3b3;strokeColor=#666666;" vertex="1" parent="1">
          <mxGeometry x="350" y="110" width="380" height="570" as="geometry" />
        </mxCell>
        <mxCell id="_ZnvYIC-QsZPnhIG2Bkr-2" value="Navbar" style="swimlane;fontStyle=0;childLayout=stackLayout;horizontal=1;startSize=30;horizontalStack=0;resizeParent=1;resizeParentMax=0;resizeLast=0;collapsible=1;marginBottom=0;whiteSpace=wrap;html=1;" vertex="1" parent="_ZnvYIC-QsZPnhIG2Bkr-1">
          <mxGeometry x="30" y="230" width="140" height="90" as="geometry" />
        </mxCell>
        <mxCell id="_ZnvYIC-QsZPnhIG2Bkr-3" value="- NavLinks" style="text;strokeColor=none;fillColor=none;align=left;verticalAlign=middle;spacingLeft=4;spacingRight=4;overflow=hidden;points=[[0,0.5],[1,0.5]];portConstraint=eastwest;rotatable=0;whiteSpace=wrap;html=1;" vertex="1" parent="_ZnvYIC-QsZPnhIG2Bkr-2">
          <mxGeometry y="30" width="140" height="30" as="geometry" />
        </mxCell>
        <mxCell id="_ZnvYIC-QsZPnhIG2Bkr-4" value="-&amp;nbsp;" style="text;strokeColor=none;fillColor=none;align=left;verticalAlign=middle;spacingLeft=4;spacingRight=4;overflow=hidden;points=[[0,0.5],[1,0.5]];portConstraint=eastwest;rotatable=0;whiteSpace=wrap;html=1;" vertex="1" parent="_ZnvYIC-QsZPnhIG2Bkr-2">
          <mxGeometry y="60" width="140" height="30" as="geometry" />
        </mxCell>
        <mxCell id="_ZnvYIC-QsZPnhIG2Bkr-5" value="&lt;pre style=&quot;font-family: var(--ds-font-family-code); overflow: auto; padding: calc(var(--ds-md-zoom)*8px)calc(var(--ds-md-zoom)*12px); text-wrap: wrap; word-break: break-all; font-size: 12.573px; text-align: start; margin-top: 0px !important; margin-bottom: 0px !important;&quot;&gt;&lt;font color=&quot;#1a1a1a&quot;&gt;AppRoutes   &lt;/font&gt;&lt;/pre&gt;" style="swimlane;fontStyle=0;childLayout=stackLayout;horizontal=1;startSize=30;horizontalStack=0;resizeParent=1;resizeParentMax=0;resizeLast=0;collapsible=1;marginBottom=0;whiteSpace=wrap;html=1;" vertex="1" parent="_ZnvYIC-QsZPnhIG2Bkr-1">
          <mxGeometry x="200" y="230" width="140" height="160" as="geometry" />
        </mxCell>
        <mxCell id="_ZnvYIC-QsZPnhIG2Bkr-6" value="- Home&lt;div&gt;- MyAccount&lt;/div&gt;&lt;div&gt;- MyOrder&lt;/div&gt;&lt;div&gt;- MyOrders&lt;/div&gt;&lt;div&gt;- NotFound&lt;/div&gt;&lt;div&gt;- SignIn/SignUp&lt;/div&gt;" style="text;strokeColor=none;fillColor=none;align=left;verticalAlign=middle;spacingLeft=4;spacingRight=4;overflow=hidden;points=[[0,0.5],[1,0.5]];portConstraint=eastwest;rotatable=0;whiteSpace=wrap;html=1;" vertex="1" parent="_ZnvYIC-QsZPnhIG2Bkr-5">
          <mxGeometry y="30" width="140" height="130" as="geometry" />
        </mxCell>
        <mxCell id="_ZnvYIC-QsZPnhIG2Bkr-7" value="App" style="swimlane;fontStyle=0;childLayout=stackLayout;horizontal=1;startSize=30;horizontalStack=0;resizeParent=1;resizeParentMax=0;resizeLast=0;collapsible=1;marginBottom=0;whiteSpace=wrap;html=1;" vertex="1" parent="_ZnvYIC-QsZPnhIG2Bkr-1">
          <mxGeometry x="30" y="50" width="140" height="100" as="geometry" />
        </mxCell>
        <mxCell id="_ZnvYIC-QsZPnhIG2Bkr-8" value="- ShoppingCartProvider" style="text;strokeColor=none;fillColor=none;align=left;verticalAlign=middle;spacingLeft=4;spacingRight=4;overflow=hidden;points=[[0,0.5],[1,0.5]];portConstraint=eastwest;rotatable=0;whiteSpace=wrap;html=1;" vertex="1" parent="_ZnvYIC-QsZPnhIG2Bkr-7">
          <mxGeometry y="30" width="140" height="30" as="geometry" />
        </mxCell>
        <mxCell id="_ZnvYIC-QsZPnhIG2Bkr-9" value="- BrowerRouter" style="text;strokeColor=none;fillColor=none;align=left;verticalAlign=middle;spacingLeft=4;spacingRight=4;overflow=hidden;points=[[0,0.5],[1,0.5]];portConstraint=eastwest;rotatable=0;whiteSpace=wrap;html=1;" vertex="1" parent="_ZnvYIC-QsZPnhIG2Bkr-7">
          <mxGeometry y="60" width="140" height="40" as="geometry" />
        </mxCell>
        <mxCell id="_ZnvYIC-QsZPnhIG2Bkr-10" value="" style="endArrow=none;html=1;rounded=0;exitX=0.5;exitY=0;exitDx=0;exitDy=0;startArrow=classic;startFill=1;" edge="1" parent="_ZnvYIC-QsZPnhIG2Bkr-1" source="_ZnvYIC-QsZPnhIG2Bkr-2">
          <mxGeometry width="50" height="50" relative="1" as="geometry">
            <mxPoint x="155" y="250" as="sourcePoint" />
            <mxPoint x="100" y="150" as="targetPoint" />
          </mxGeometry>
        </mxCell>
        <mxCell id="_ZnvYIC-QsZPnhIG2Bkr-11" value="" style="endArrow=none;html=1;rounded=0;exitX=0.474;exitY=0.012;exitDx=0;exitDy=0;startArrow=classic;startFill=1;exitPerimeter=0;" edge="1" parent="_ZnvYIC-QsZPnhIG2Bkr-1" source="_ZnvYIC-QsZPnhIG2Bkr-13">
          <mxGeometry width="50" height="50" relative="1" as="geometry">
            <mxPoint x="99.43999999999997" y="419.28999999999996" as="sourcePoint" />
            <mxPoint x="100.57" y="320" as="targetPoint" />
          </mxGeometry>
        </mxCell>
        <mxCell id="_ZnvYIC-QsZPnhIG2Bkr-12" style="rounded=0;orthogonalLoop=1;jettySize=auto;html=1;exitX=1;exitY=0.5;exitDx=0;exitDy=0;startArrow=classic;startFill=1;" edge="1" parent="_ZnvYIC-QsZPnhIG2Bkr-1" source="_ZnvYIC-QsZPnhIG2Bkr-3">
          <mxGeometry relative="1" as="geometry">
            <mxPoint x="198" y="275" as="targetPoint" />
          </mxGeometry>
        </mxCell>
        <mxCell id="_ZnvYIC-QsZPnhIG2Bkr-13" value="CheckoutSideMenu" style="swimlane;fontStyle=0;childLayout=stackLayout;horizontal=1;startSize=30;horizontalStack=0;resizeParent=1;resizeParentMax=0;resizeLast=0;collapsible=1;marginBottom=0;whiteSpace=wrap;html=1;" vertex="1" parent="1">
          <mxGeometry x="385" y="530" width="140" height="90" as="geometry" />
        </mxCell>
        <mxCell id="_ZnvYIC-QsZPnhIG2Bkr-14" value="- ShoppingCart" style="text;strokeColor=none;fillColor=none;align=left;verticalAlign=middle;spacingLeft=4;spacingRight=4;overflow=hidden;points=[[0,0.5],[1,0.5]];portConstraint=eastwest;rotatable=0;whiteSpace=wrap;html=1;" vertex="1" parent="_ZnvYIC-QsZPnhIG2Bkr-13">
          <mxGeometry y="30" width="140" height="30" as="geometry" />
        </mxCell>
        <mxCell id="_ZnvYIC-QsZPnhIG2Bkr-15" value="-&amp;nbsp;" style="text;strokeColor=none;fillColor=none;align=left;verticalAlign=middle;spacingLeft=4;spacingRight=4;overflow=hidden;points=[[0,0.5],[1,0.5]];portConstraint=eastwest;rotatable=0;whiteSpace=wrap;html=1;" vertex="1" parent="_ZnvYIC-QsZPnhIG2Bkr-13">
          <mxGeometry y="60" width="140" height="30" as="geometry" />
        </mxCell>
      </root>
    </mxGraphModel>
  </diagram>
  <diagram id="HRvUcFfcC66j-U84dOnz" name="API Request">
    <mxGraphModel dx="1593" dy="665" grid="1" gridSize="10" guides="1" tooltips="1" connect="1" arrows="1" fold="1" page="1" pageScale="1" pageWidth="1100" pageHeight="850" math="0" shadow="0">
      <root>
        <mxCell id="0" />
        <mxCell id="1" parent="0" />
        <mxCell id="vXJ4Zk1wvm1boU7ydnl3-1" value="API request to fill Cards" style="swimlane;whiteSpace=wrap;html=1;fillColor=#f5f5f5;gradientColor=#b3b3b3;strokeColor=#666666;" vertex="1" parent="1">
          <mxGeometry x="180" y="110" width="700" height="610" as="geometry" />
        </mxCell>
        <mxCell id="vXJ4Zk1wvm1boU7ydnl3-2" value="ProductCard" style="swimlane;fontStyle=0;childLayout=stackLayout;horizontal=1;startSize=30;horizontalStack=0;resizeParent=1;resizeParentMax=0;resizeLast=0;collapsible=1;marginBottom=0;whiteSpace=wrap;html=1;" vertex="1" parent="vXJ4Zk1wvm1boU7ydnl3-1">
          <mxGeometry x="60" y="345" width="140" height="90" as="geometry" />
        </mxCell>
        <mxCell id="vXJ4Zk1wvm1boU7ydnl3-3" value="- Recieves API Data" style="text;strokeColor=none;fillColor=none;align=left;verticalAlign=middle;spacingLeft=4;spacingRight=4;overflow=hidden;points=[[0,0.5],[1,0.5]];portConstraint=eastwest;rotatable=0;whiteSpace=wrap;html=1;" vertex="1" parent="vXJ4Zk1wvm1boU7ydnl3-2">
          <mxGeometry y="30" width="140" height="30" as="geometry" />
        </mxCell>
        <mxCell id="vXJ4Zk1wvm1boU7ydnl3-4" value="- Render Data ( Image, Title, Price, etc)&amp;nbsp;&amp;nbsp;" style="text;strokeColor=none;fillColor=none;align=left;verticalAlign=middle;spacingLeft=4;spacingRight=4;overflow=hidden;points=[[0,0.5],[1,0.5]];portConstraint=eastwest;rotatable=0;whiteSpace=wrap;html=1;" vertex="1" parent="vXJ4Zk1wvm1boU7ydnl3-2">
          <mxGeometry y="60" width="140" height="30" as="geometry" />
        </mxCell>
        <mxCell id="sf57idAst9-XcP82HA6R-4" style="edgeStyle=orthogonalEdgeStyle;rounded=0;orthogonalLoop=1;jettySize=auto;html=1;exitX=0.5;exitY=1;exitDx=0;exitDy=0;" edge="1" parent="vXJ4Zk1wvm1boU7ydnl3-1" source="vXJ4Zk1wvm1boU7ydnl3-5" target="vXJ4Zk1wvm1boU7ydnl3-2">
          <mxGeometry relative="1" as="geometry" />
        </mxCell>
        <mxCell id="vXJ4Zk1wvm1boU7ydnl3-5" value="Context Card Component" style="swimlane;fontStyle=0;childLayout=stackLayout;horizontal=1;startSize=30;horizontalStack=0;resizeParent=1;resizeParentMax=0;resizeLast=0;collapsible=1;marginBottom=0;whiteSpace=wrap;html=1;" vertex="1" parent="vXJ4Zk1wvm1boU7ydnl3-1">
          <mxGeometry x="30" y="90" width="200" height="120" as="geometry" />
        </mxCell>
        <mxCell id="vXJ4Zk1wvm1boU7ydnl3-6" value="- Request data to API&lt;div&gt;&lt;br&gt;&lt;/div&gt;&lt;div&gt;- Passes Data to ProductCard&lt;/div&gt;" style="text;strokeColor=none;fillColor=none;align=left;verticalAlign=middle;spacingLeft=4;spacingRight=4;overflow=hidden;points=[[0,0.5],[1,0.5]];portConstraint=eastwest;rotatable=0;whiteSpace=wrap;html=1;" vertex="1" parent="vXJ4Zk1wvm1boU7ydnl3-5">
          <mxGeometry y="30" width="200" height="90" as="geometry" />
        </mxCell>
        <mxCell id="vXJ4Zk1wvm1boU7ydnl3-10" value="API" style="swimlane;fontStyle=0;childLayout=stackLayout;horizontal=1;startSize=30;horizontalStack=0;resizeParent=1;resizeParentMax=0;resizeLast=0;collapsible=1;marginBottom=0;whiteSpace=wrap;html=1;" vertex="1" parent="vXJ4Zk1wvm1boU7ydnl3-1">
          <mxGeometry x="400" y="240" width="210" height="140" as="geometry" />
        </mxCell>
        <mxCell id="vXJ4Zk1wvm1boU7ydnl3-11" value="- Recieves request&amp;nbsp;" style="text;strokeColor=none;fillColor=none;align=left;verticalAlign=middle;spacingLeft=4;spacingRight=4;overflow=hidden;points=[[0,0.5],[1,0.5]];portConstraint=eastwest;rotatable=0;whiteSpace=wrap;html=1;" vertex="1" parent="vXJ4Zk1wvm1boU7ydnl3-10">
          <mxGeometry y="30" width="210" height="30" as="geometry" />
        </mxCell>
        <mxCell id="vXJ4Zk1wvm1boU7ydnl3-12" value="- Process Data&lt;div&gt;&lt;br&gt;&lt;/div&gt;&lt;div&gt;- Sends answer request&amp;nbsp;&lt;span style=&quot;background-color: initial;&quot;&gt;(JSON)&lt;/span&gt;&lt;/div&gt;&lt;div&gt;&lt;div&gt;&amp;nbsp;&lt;/div&gt;&lt;/div&gt;" style="text;strokeColor=none;fillColor=none;align=left;verticalAlign=middle;spacingLeft=4;spacingRight=4;overflow=hidden;points=[[0,0.5],[1,0.5]];portConstraint=eastwest;rotatable=0;whiteSpace=wrap;html=1;" vertex="1" parent="vXJ4Zk1wvm1boU7ydnl3-10">
          <mxGeometry y="60" width="210" height="80" as="geometry" />
        </mxCell>
        <mxCell id="sf57idAst9-XcP82HA6R-2" style="edgeStyle=orthogonalEdgeStyle;rounded=0;orthogonalLoop=1;jettySize=auto;html=1;exitX=1;exitY=0.5;exitDx=0;exitDy=0;endArrow=classic;endFill=1;startArrow=classic;startFill=1;" edge="1" parent="vXJ4Zk1wvm1boU7ydnl3-10" source="vXJ4Zk1wvm1boU7ydnl3-10">
          <mxGeometry relative="1" as="geometry">
            <mxPoint x="210" y="60" as="targetPoint" />
            <Array as="points">
              <mxPoint x="270" y="70" />
              <mxPoint x="270" y="60" />
            </Array>
          </mxGeometry>
        </mxCell>
        <mxCell id="sf57idAst9-XcP82HA6R-1" style="edgeStyle=orthogonalEdgeStyle;rounded=0;orthogonalLoop=1;jettySize=auto;html=1;exitX=1;exitY=0.5;exitDx=0;exitDy=0;entryX=0;entryY=0.25;entryDx=0;entryDy=0;" edge="1" parent="vXJ4Zk1wvm1boU7ydnl3-1" source="vXJ4Zk1wvm1boU7ydnl3-6" target="vXJ4Zk1wvm1boU7ydnl3-10">
          <mxGeometry relative="1" as="geometry" />
        </mxCell>
        <mxCell id="sf57idAst9-XcP82HA6R-3" style="edgeStyle=orthogonalEdgeStyle;rounded=0;orthogonalLoop=1;jettySize=auto;html=1;exitX=0;exitY=0.5;exitDx=0;exitDy=0;entryX=1.012;entryY=0.754;entryDx=0;entryDy=0;entryPerimeter=0;" edge="1" parent="vXJ4Zk1wvm1boU7ydnl3-1" source="vXJ4Zk1wvm1boU7ydnl3-12" target="vXJ4Zk1wvm1boU7ydnl3-6">
          <mxGeometry relative="1" as="geometry">
            <Array as="points">
              <mxPoint x="280" y="340" />
              <mxPoint x="280" y="188" />
            </Array>
          </mxGeometry>
        </mxCell>
        <mxCell id="sf57idAst9-XcP82HA6R-5" value="ProductDetail" style="swimlane;fontStyle=0;childLayout=stackLayout;horizontal=1;startSize=30;horizontalStack=0;resizeParent=1;resizeParentMax=0;resizeLast=0;collapsible=1;marginBottom=0;whiteSpace=wrap;html=1;" vertex="1" parent="vXJ4Zk1wvm1boU7ydnl3-1">
          <mxGeometry x="230" y="440" width="140" height="90" as="geometry" />
        </mxCell>
        <mxCell id="sf57idAst9-XcP82HA6R-6" value="- Recieves API Data" style="text;strokeColor=none;fillColor=none;align=left;verticalAlign=middle;spacingLeft=4;spacingRight=4;overflow=hidden;points=[[0,0.5],[1,0.5]];portConstraint=eastwest;rotatable=0;whiteSpace=wrap;html=1;" vertex="1" parent="sf57idAst9-XcP82HA6R-5">
          <mxGeometry y="30" width="140" height="30" as="geometry" />
        </mxCell>
        <mxCell id="sf57idAst9-XcP82HA6R-7" value="- Render Data ( Image, Title, Price, etc)&amp;nbsp;&amp;nbsp;" style="text;strokeColor=none;fillColor=none;align=left;verticalAlign=middle;spacingLeft=4;spacingRight=4;overflow=hidden;points=[[0,0.5],[1,0.5]];portConstraint=eastwest;rotatable=0;whiteSpace=wrap;html=1;" vertex="1" parent="sf57idAst9-XcP82HA6R-5">
          <mxGeometry y="60" width="140" height="30" as="geometry" />
        </mxCell>
        <mxCell id="sf57idAst9-XcP82HA6R-8" style="edgeStyle=orthogonalEdgeStyle;rounded=0;orthogonalLoop=1;jettySize=auto;html=1;startArrow=classic;startFill=1;endArrow=none;endFill=0;" edge="1" parent="vXJ4Zk1wvm1boU7ydnl3-1" source="sf57idAst9-XcP82HA6R-5">
          <mxGeometry relative="1" as="geometry">
            <mxPoint x="170" y="210" as="targetPoint" />
            <Array as="points">
              <mxPoint x="210" y="485" />
              <mxPoint x="210" y="214" />
              <mxPoint x="173" y="214" />
              <mxPoint x="173" y="210" />
            </Array>
          </mxGeometry>
        </mxCell>
      </root>
    </mxGraphModel>
  </diagram>
</mxfile>
